<?xml version="1.0" standalone="no"?>
<!DOCTYPE svg PUBLIC "-//W3C//DTD SVG 20010904//EN"
 "http://www.w3.org/TR/2001/REC-SVG-20010904/DTD/svg10.dtd">
<svg version="1.0" xmlns="http://www.w3.org/2000/svg"
 width="813.000000pt" height="813.000000pt" viewBox="0 0 813.000000 813.000000"
 preserveAspectRatio="xMidYMid meet">
<metadata>
Created by potrace 1.14, written by Peter Selinger 2001-2017
</metadata>
<g transform="translate(0.000000,813.000000) scale(0.100000,-0.100000)"
fill="#000000" stroke="none">
<path d="M8125 4065 c0 -2239 1 -3153 2 -2032 2 1121 2 2953 0 4070 -1 1118
-2 201 -2 -2038z"/>
<path d="M100 4065 c0 -3914 0 -3964 19 -3975 14 -7 1246 -9 3951 -8 3481 3
3932 5 3940 18 14 21 13 7877 0 7885 -5 3 -10 15 -10 26 0 19 -47 19 -3950 19
l-3950 0 0 -3965z m7798 3813 c9 -9 12 -875 12 -3835 l0 -3823 -3850 0 -3850
0 0 3829 c0 3054 3 3830 13 3834 6 3 1733 6 3838 6 2962 1 3828 -2 3837 -11z"/>
<path d="M5530 7157 l-105 -83 -6 -69 c-3 -39 -13 -87 -22 -107 -39 -85 -6
-196 68 -233 38 -19 66 -20 665 -26 708 -6 707 -6 776 -75 59 -58 66 -100 66
-360 0 -195 -2 -217 -19 -236 -50 -55 -85 -65 -624 -173 -288 -58 -546 -112
-574 -121 -160 -52 -280 -152 -344 -287 -35 -73 -52 -124 -109 -327 -13 -46
-16 -143 -19 -577 -3 -372 -1 -534 7 -564 15 -54 64 -104 117 -118 30 -8 323
-11 1005 -9 954 3 963 3 1003 24 26 13 49 37 65 65 22 40 25 55 25 154 0 114
-8 141 -56 204 -14 17 -19 41 -19 87 l0 64 -811 0 -811 0 5 263 c2 165 8 276
16 300 18 56 76 111 146 136 33 13 229 56 435 97 636 127 673 137 786 209 122
78 200 174 251 310 52 136 58 191 58 510 0 272 -2 296 -24 380 -24 92 -76 219
-137 335 -61 117 -178 216 -307 260 -133 45 -214 50 -827 50 l-575 -1 -105
-82z"/>
<path d="M860 6181 c0 -63 -4 -92 -14 -100 -8 -6 -19 -31 -25 -56 -8 -32 -11
-758 -11 -2598 0 -2813 -4 -2626 61 -2681 51 -43 86 -48 354 -44 286 3 299 7
345 89 l25 44 5 881 c5 944 3 897 54 927 16 9 270 13 1011 17 968 6 992 6
1101 28 493 97 785 405 871 917 14 83 17 200 21 710 5 781 -5 916 -84 1145
-42 120 -159 349 -217 425 -117 153 -314 277 -522 330 -212 54 -240 55 -1662
55 l-1313 0 0 -89z m2691 -765 c126 -27 212 -89 263 -192 50 -100 51 -113 51
-809 0 -357 -4 -667 -8 -687 -10 -48 -95 -141 -156 -173 -126 -63 -60 -59
-1128 -63 l-973 -3 0 919 c0 506 3 934 6 952 5 21 17 38 38 51 30 18 66 19
936 19 739 0 917 -3 971 -14z"/>
</g>
</svg>
